<svg id="组_49" data-name="组 49" xmlns="http://www.w3.org/2000/svg" width="93" height="42.656" viewBox="0 0 93 42.656">
  <defs>
    <style>
      .cls-1, .cls-2 {
        fill-rule: evenodd;
      }

      .cls-2 {
        fill: red;
      }
    </style>
  </defs>
  <path id="形状_1" data-name="形状 1" class="cls-1" d="M272.565,22.7h0q0-2.94,0-5.88c0-.658-0.053-0.708-0.7-0.712q-0.94-.005-1.881,0c-0.7,0-.713.014-0.713,0.731q0,5.373,0,10.745a9.623,9.623,0,0,1-.118,1.543,2.239,2.239,0,0,1-1.547,1.942,2.92,2.92,0,0,1-2.938-.461,1.832,1.832,0,0,1-.645-1.081,8.4,8.4,0,0,1-.192-1.7q0.009-5.507,0-11.013c0-.667-0.041-0.706-0.691-0.71q-0.94-.005-1.882,0c-0.693,0-.716.025-0.717,0.736q0,4.464,0,8.928a30.292,30.292,0,0,0,.1,3.577,5.372,5.372,0,0,0,1.395,3.282,6.179,6.179,0,0,0,5.3,1.782,5.471,5.471,0,0,0,4.619-3.134,8.169,8.169,0,0,0,.592-3.605C272.586,26.02,272.565,24.362,272.565,22.7Zm2.494,4.691c0,2,.008,3.992-0.007,5.989a0.516,0.516,0,0,0,.62.635c0.555-.025,1.111-0.005,1.667-0.005,0.931,0,.925,0,0.935-0.913,0.023-2.084-.054-4.169.066-6.253a3.892,3.892,0,0,1,1.255-2.855,2.258,2.258,0,0,1,3.772,1.2,12.289,12.289,0,0,1,.231,2.815c-0.027,1.8-.011,3.6-0.02,5.4a0.517,0.517,0,0,0,.616.6c0.662-.017,1.326-0.013,1.989,0a0.463,0.463,0,0,0,.571-0.52c-0.016-3.012.027-6.025-.053-9.035a4.034,4.034,0,0,0-3.448-3.887,5.266,5.266,0,0,0-4.366,1.186,0.349,0.349,0,1,1-.61-0.285,0.554,0.554,0,0,0-.7-0.674c-0.608.029-1.219,0-1.828,0.007-0.652,0-.689.04-0.69,0.712Q275.054,24.454,275.059,27.4Zm8,23.677c-0.305,0-.61.012-0.914,0-0.557-.027-0.524.353-0.521,0.72s-0.059.749,0.5,0.735c0.519-.012,1.039-0.007,1.559,0,0.563,0.01.641,0.1,0.5,0.639a5.4,5.4,0,0,1-1.776,2.987,1.932,1.932,0,0,0-.792,1.938,0.505,0.505,0,0,0,.083.447,0.392,0.392,0,0,0,.408-0.184,10.126,10.126,0,0,0,2.712-3c0.363-.633.373-0.629,0.736,0a8.825,8.825,0,0,0,2.737,2.964c0.129,0.086.32,0.353,0.452,0.012a2.015,2.015,0,0,0-.569-2.008,7.589,7.589,0,0,1-2.248-3.206c-0.177-.445-0.019-0.586.416-0.58,0.627,0.008,1.254-.016,1.881,0,0.592,0.016.531-.382,0.538-0.762s0-.721-0.545-0.7c-0.608.022-1.219-.016-1.827,0.006a0.5,0.5,0,0,1-.6-0.6c0.012-.445.01-0.891,0-1.336a0.487,0.487,0,0,1,.59-0.564c0.627,0.015,1.254,0,1.881,0a0.417,0.417,0,0,0,.487-0.315c0.19-.766-0.029-1.058-0.819-1.067-0.107,0-.215,0-0.322,0-0.55-.028-0.6-0.115-0.327-0.608,0.285-.514.581-1.022,0.863-1.538,0.082-.15.2-0.326-0.057-0.445a1.316,1.316,0,0,0-1.522.519c-0.311.562-.616,1.128-0.958,1.67-0.311.493-.512,0.492-0.823,0.014-0.3-.463-0.584-0.94-0.845-1.426a1.126,1.126,0,0,0-1.509-.81c-0.3.035-.385,0.161-0.25,0.42,0.19,0.364.385,0.724,0.592,1.079,0.6,1.02.6,1.018-.6,1.074a0.474,0.474,0,0,0-.533.258,0.769,0.769,0,0,0,.785,1.177c0.269,0,.538,0,0.806,0,1.247,0,1.173-.088,1.168,1.155C284.409,51.237,284.562,51.056,283.063,51.073Zm9.37-23.688c0-1.978-.01-3.956.007-5.934a0.538,0.538,0,0,0-.656-0.656c-0.662.028-1.326,0.017-1.988,0a0.46,0.46,0,0,0-.556.531q0.009,6.069,0,12.136a0.459,0.459,0,0,0,.542.545c0.591-.014,1.182,0,1.774,0,0.875,0,.877,0,0.877-0.849Q292.436,30.271,292.433,27.384Zm7.542,6.622c1.594,0,3.188-.007,4.782,0a0.477,0.477,0,0,0,.589-0.552c-0.018-.73-0.012-1.46,0-2.191a0.437,0.437,0,0,0-.518-0.509q-4.836.007-9.671,0a0.434,0.434,0,0,0-.508.516c0.01,0.694.022,1.39,0,2.084a0.54,0.54,0,0,0,.659.656C296.859,33.995,298.417,34.008,299.975,34.007Zm0.016-14.662c1.576,0,3.152-.01,4.728.006a0.521,0.521,0,0,0,.629-0.63c-0.024-.694-0.014-1.39-0.006-2.084a0.444,0.444,0,0,0-.51-0.525q-4.835,0-9.67,0a0.443,0.443,0,0,0-.514.52c0.008,0.659,0,1.318,0,1.977,0,0.7.038,0.736,0.721,0.738Q297.682,19.349,299.991,19.345Zm0.021,7.316v0c1.574,0,3.149-.007,4.723,0a0.5,0.5,0,0,0,.612-0.594c-0.02-.694-0.013-1.388,0-2.083a0.44,0.44,0,0,0-.509-0.521q-4.832.006-9.662,0a0.435,0.435,0,0,0-.523.5c0.007,0.178-.015.357,0,0.533,0.063,0.682-.307,1.54.169,2,0.451,0.44,1.3.13,1.971,0.146C297.864,26.681,298.938,26.661,300.012,26.661Zm24.855,19.187v0c-0.286,0-.573.011-0.859,0-0.582-.028-0.542.367-0.55,0.754s0.027,0.715.555,0.7c0.572-.019,1.145,0,1.718,0a0.445,0.445,0,0,1,.517.521c0,0.16,0,.32,0,0.481,0.009,0.653.059,0.7,0.7,0.706,0.693,0,.742-0.043.748-0.71a3.32,3.32,0,0,0,0-.373,0.51,0.51,0,0,1,.626-0.629c1.11,0.013,2.22,0,3.33,0,1.328,0,1.3-.081,1.265,1.175a0.427,0.427,0,0,0,.335.522c0.837,0.191,1.124-.021,1.13-0.861,0-.089.007-0.178,0-0.267a0.477,0.477,0,0,1,.579-0.57c0.554,0.01,1.11-.015,1.664,0,0.59,0.017.529-.38,0.54-0.761,0.012-.4-0.031-0.713-0.557-0.693s-1.076-.022-1.611.011a0.485,0.485,0,0,1-.617-0.611c0.057-.53-0.255-0.621-0.7-0.61-0.418.01-.826-0.011-0.77,0.589,0.047,0.506-.218.636-0.681,0.629-1.217-.019-2.435-0.005-3.652-0.006-0.786,0-.8,0-0.882-0.787-0.047-.455-0.36-0.429-0.663-0.415s-0.714-.13-0.786.4c-0.111.807-.121,0.806-0.958,0.8h-0.43Zm6.878,12.477c1.074,0,2.149,0,3.222,0,0.178,0,.423.077,0.483-0.206a1.166,1.166,0,0,0-1.017-1.259q-2.444,0-4.887,0a1.591,1.591,0,0,1-1.84-1.824c-0.009-1.37,0-2.741,0-4.112,0-.666-0.055-0.719-0.681-0.724-0.694-.006-0.764.052-0.766,0.7,0,1.638-.007,3.276,0,4.914a2.426,2.426,0,0,0,2.535,2.518C329.776,58.334,330.761,58.325,331.745,58.325Zm2.787-8.109c-0.829-.017-0.833-0.015-0.606.691,0.484,1.51,1,3.011,1.446,4.532a0.9,0.9,0,0,0,1.084.741c0.465-.025.608-0.133,0.452-0.6-0.519-1.555-1.027-3.114-1.5-4.681A0.717,0.717,0,0,0,334.532,50.216Zm-10.963,2.969c0,0.836.018,1.672-.007,2.508-0.015.505,0.252,0.586,0.672,0.581,0.4,0,.695-0.042.69-0.563q-0.027-2.481,0-4.962c0-.521-0.3-0.555-0.7-0.562-0.429-.007-0.678.1-0.663,0.6C323.586,51.584,323.568,52.385,323.569,53.185Zm7.007-2.969c-0.861,0-.86-0.005-0.64.766,0.044,0.155.08,0.311,0.124,0.465,0.289,1.01.568,2.023,0.875,3.028a0.937,0.937,0,0,0,1.231.4c0.458-.168.216-0.507,0.145-0.765-0.3-1.082-.653-2.149-0.924-3.237C331.258,50.361,331.03,50.124,330.576,50.217Zm6.7-22.744c0-2.288-.012-4.159.008-6.03a0.532,0.532,0,0,0-.659-0.648c-0.5.028-1,.006-1.5,0.006-1,0-1,0-1.067.981a0.329,0.329,0,0,1-.1.291c-0.139.091-.231-0.03-0.327-0.1-0.143-.107-0.28-0.221-0.423-0.329a5.93,5.93,0,0,0-7.058.008c-2.677,1.976-3.247,6.37-1.642,9.178a6.237,6.237,0,0,0,7.832,2.7,5.879,5.879,0,0,0,1.343-.878c0.2-.16.345-0.181,0.4,0.13a2.965,2.965,0,0,1-1.365,2.94,4.811,4.811,0,0,1-4.645-.011,4.18,4.18,0,0,0-2.364-.591c-0.483.022-.969,0.019-1.452,0-0.433-.017-0.547.125-0.37,0.534a5.258,5.258,0,0,0,2.629,2.781,9.549,9.549,0,0,0,5.992.57,6.246,6.246,0,0,0,2.229-.892,5.62,5.62,0,0,0,2.443-4.539C337.4,31.4,337.21,29.228,337.278,27.472ZM330.546,31.1a3.635,3.635,0,0,1-3.7-3.833,3.582,3.582,0,0,1,3.717-3.813A3.636,3.636,0,0,1,334.22,27.3,3.627,3.627,0,0,1,330.546,31.1Zm-9.371-14.321a0.559,0.559,0,0,0-.691-0.679c-0.59.031-1.183,0-1.775,0.007-0.7,0-.736.031-0.738,0.716,0,1.515,0,3.031-.01,4.546a0.69,0.69,0,0,1-.112.652c-0.252.151-.4-0.165-0.566-0.292a5.824,5.824,0,0,0-7.967.671,7.749,7.749,0,0,0-1.128,8.222,6.134,6.134,0,0,0,5.859,3.707,5.489,5.489,0,0,0,3.342-1.307,0.473,0.473,0,0,1,.442-0.242,0.806,0.806,0,0,1,.14.69,0.449,0.449,0,0,0,.55.534c0.627-.013,1.254,0,1.882,0,0.733,0,.763-0.03.763-0.752q0-4.091,0-8.183C321.167,22.309,321.158,19.546,321.175,16.783Zm-3.092,10.623a3.685,3.685,0,1,1-7.355.407,3.975,3.975,0,0,1,1.424-3.625,3.681,3.681,0,0,1,5.929,2.738C318.1,27.085,318.083,27.246,318.083,27.406Zm28.31-6.931a6.306,6.306,0,0,0-5.881,3.558,6.9,6.9,0,0,0,.286,7.328c1.743,2.62,4.341,3.389,7.377,2.918a6.421,6.421,0,0,0,4.079-2.27c0.31-.37.243-0.571-0.178-0.752q-0.863-.372-1.706-0.787a0.706,0.706,0,0,0-.839.084,4.763,4.763,0,0,1-2.837,1,3.731,3.731,0,0,1-3.729-2.508c-0.167-.581-0.083-0.7.527-0.707,1.559-.006,3.118,0,4.677,0v0c1.594,0,3.189,0,4.783,0a0.462,0.462,0,0,0,.572-0.509A6.8,6.8,0,0,0,346.393,20.475Zm3.208,5.338c-0.986,0-1.972,0-2.958,0v0h-3.118c-0.389,0-.6-0.1-0.371-0.538a3.73,3.73,0,0,1,3.427-2.115,3.66,3.66,0,0,1,3.448,1.884C350.4,25.681,350.326,25.81,349.6,25.813ZM318.217,54.026c-0.77.02-1.541,0-2.312,0a0.483,0.483,0,0,1-.575-0.577c0.019-.356,0-0.713,0-1.07,0-.755.041-0.793,0.78-0.8q0.834-.006,1.667,0c0.456,0,.505-0.3.5-0.652s-0.071-.605-0.494-0.6c-0.448,0-.9,0-1.344,0-1.157,0-1.141,0-1.12-1.157a0.51,0.51,0,0,1,.61-0.6c0.68,0.015,1.362-.007,2.043,0,0.463,0.007.509-.283,0.509-0.638,0-.339-0.056-0.606-0.485-0.605q-3.388.005-6.775,0c-0.452,0-.447.309-0.451,0.628s0.026,0.617.468,0.612c0.538-.005,1.076,0,1.613,0,1.167,0,1.184.03,1.121,1.209a0.475,0.475,0,0,1-.552.544c-0.573-.012-1.148.015-1.72,0a0.531,0.531,0,0,0-.655.614,0.554,0.554,0,0,0,.676.656c0.537-.02,1.076.007,1.613-0.005a0.517,0.517,0,0,1,.643.619,9.049,9.049,0,0,0,0,1.176,0.548,0.548,0,0,1-.674.655c-0.753-.015-1.506.011-2.258,0a0.538,0.538,0,0,0-.626.65,0.524,0.524,0,0,0,.631.63c1.183-.019,2.366-0.006,3.549-0.006,1.2,0,2.4-.012,3.6.007a0.541,0.541,0,0,0,.684-0.628A0.554,0.554,0,0,0,318.217,54.026Zm-1.37-2.094c-0.16,0-.231,0-0.3,0-0.56.008-.577,0.033-0.34,0.528,0.122,0.256.266,0.5,0.376,0.763a0.716,0.716,0,0,0,.744.474c0.957,0,1-.039.547-0.87C317.628,52.379,317.523,51.744,316.847,51.932Zm4.117,5.958q0.007-6.257,0-12.515c0-.651-0.06-0.709-0.7-0.709q-5.619,0-11.239,0c-0.666,0-.711.044-0.712,0.694q0,3.129,0,6.257,0,3.156,0,6.311a0.557,0.557,0,0,0,.239.65,1.072,1.072,0,0,0,1.255-.407,0.456,0.456,0,0,1,.462-0.2q4.381,0,8.765,0a0.407,0.407,0,0,1,.481.243c0.206,0.632.732,0.4,1.135,0.367S320.964,58.16,320.964,57.89ZM319.5,51.312h0c0,1.549-.012,3.1.007,4.647a0.482,0.482,0,0,1-.58.593q-4.3-.022-8.592,0a0.469,0.469,0,0,1-.568-0.558q0.014-4.674,0-9.348A0.559,0.559,0,0,1,310.444,46q4.215,0.02,8.431,0a0.532,0.532,0,0,1,.632.665C319.482,48.214,319.5,49.763,319.5,51.312Zm-14.3-.786c-0.231.021-.467-0.014-0.7,0a0.537,0.537,0,0,1-.654-0.665c0.02-.909,0-1.818,0-2.728,0-1-.084-1.077,1.016-1.033,0.525,0.02.57-.273,0.572-0.678s-0.067-.684-0.581-0.672c-1.057.024-2.115,0.007-3.173,0.007v0c-1.111,0-2.222.005-3.334,0-0.437,0-.493.266-0.475,0.6,0.018,0.322-.1.747,0.446,0.727a0.524,0.524,0,0,1,.6.661c-0.012.945,0,1.89,0,2.835,0,0.91,0,.91-0.9.943a0.538,0.538,0,0,0-.563.219,0.788,0.788,0,0,0,.72,1.223c0.09,0,.18.006,0.269,0,0.362-.032.468,0.153,0.457,0.484a7.038,7.038,0,0,1-1.689,4.732c-0.331.364-.341,0.638,0.11,0.886a1.8,1.8,0,0,1,.3.222,0.346,0.346,0,0,0,.584-0.064,11.884,11.884,0,0,0,1.209-1.827,9.412,9.412,0,0,0,.765-3.8,0.532,0.532,0,0,1,.643-0.626c0.338,0.024.68,0,1.021,0,0.692,0.005.737,0.043,0.739,0.723,0,1.658.011,3.316,0,4.974a0.534,0.534,0,0,0,.615.654,0.557,0.557,0,0,0,.659-0.671c-0.016-1.48-.008-2.96,0-4.439,0-1.41-.1-1.231,1.231-1.244,0.774-.008.769-0.025,0.8-0.771A0.546,0.546,0,0,0,305.2,50.526Zm-3.147,0c-0.447-.008-0.894-0.006-1.341,0a0.394,0.394,0,0,1-.468-0.441q0-1.76,0-3.52a0.389,0.389,0,0,1,.445-0.459c0.465,0.006.93,0.006,1.4,0a0.422,0.422,0,0,1,.484.491q0,0.88,0,1.76h0c0,0.552,0,1.1,0,1.654A0.447,0.447,0,0,1,302.053,50.527Zm-20.884,3.99c-0.366.047-.472-0.135-0.472-0.465q0.007-3.636,0-7.271a0.448,0.448,0,0,1,.434-0.549c0.562-.047.409-0.48,0.426-0.812,0.02-.388-0.227-0.478-0.555-0.477-1.577,0-3.154,0-4.731,0-0.259,0-.543.021-0.563,0.355s-0.187.761,0.29,0.917a0.524,0.524,0,0,1,.364.62q0,1.951,0,3.9c0,1.3,0,2.6,0,3.9,0,0.267.028,0.592-.358,0.6-0.729.015-.687,0.466-0.647,0.985,0.033,0.41.159,0.566,0.6,0.5,0.938-.148,1.886-0.229,2.822-0.38,0.479-.077.615,0.1,0.6,0.537-0.017.355,0.014,0.713,0,1.069a0.5,0.5,0,0,0,.612.594,0.538,0.538,0,0,0,.667-0.611c-0.014-.481,0-0.963.007-1.444a0.427,0.427,0,0,1,.3-0.508c0.681-.107.554-0.638,0.6-1.076A0.306,0.306,0,0,0,281.169,54.517Zm-2.87-8.294c1.073,0,1.073-.014,1.075,1.044,0,1.038,0,1.038-1.064,1.025-0.691-.008-0.718-0.034-0.725-0.728a5.936,5.936,0,0,0,0-.64C277.514,46.368,277.788,46.221,278.3,46.223Zm-0.714,4.311c0-1,0-1,1-.989,0.783,0.007.783,0.007,0.792,1.093,0.008,0.947.008,0.947-.96,0.942-0.82,0-.827-0.011-0.829-0.833C277.584,50.676,277.584,50.606,277.585,50.535Zm1.793,3.882a0.386,0.386,0,0,1-.41.449c-0.071.011-.14,0.03-0.21,0.044-1.16.22-1.161,0.219-1.161-.966,0-1.087.391-1.373,1.476-1.08a0.239,0.239,0,0,1,.1.031A2.417,2.417,0,0,1,279.378,54.417Zm15.687-7.133c0.346-1.167.342-1.184,1.583-1.187a0.557,0.557,0,0,0,.674-0.653,0.585,0.585,0,0,0-.678-0.716c-1.325.018-2.65,0.013-3.975,0a0.509,0.509,0,0,0-.619.589c0,0.7.041,0.765,0.742,0.77,0.161,0,.323,0,0.484,0,0.721,0.008.765,0.072,0.568,0.785a14.494,14.494,0,0,1-2.063,4.5,3.307,3.307,0,0,0-.354,2.589c0.359-.439.714-0.881,1.08-1.315,0.1-.116.174-0.337,0.352-0.279,0.211,0.068.137,0.3,0.138,0.471,0.006,1.121.008,2.243,0,3.365a0.494,0.494,0,0,0,.54.616c0.967-.009,1.934-0.005,2.9,0a0.425,0.425,0,0,0,.5-0.481q0-3.338,0-6.677a0.443,0.443,0,0,0-.528-0.505c-0.483.009-.967-0.006-1.45,0-0.375,0-.473-0.154-0.344-0.5C294.778,48.2,294.928,47.744,295.065,47.284Zm-0.081,3.3c0.354,0,.642.033,0.63,0.5-0.017.657,0,1.314,0,1.972,0,0.621-.016,1.244.006,1.865,0.018,0.486-.263.549-0.649,0.541-0.358-.008-0.694,0-0.691-0.5,0.008-1.3.006-2.594,0-3.89C294.278,50.552,294.634,50.584,294.984,50.58Z" transform="translate(-260.531 -16)"/>
  <path id="形状_1_拷贝" data-name="形状 1 拷贝" class="cls-2" d="M288.885,16.292v3.3a0.294,0.294,0,0,0,.294.293H292.5A0.294,0.294,0,0,0,292.8,19.6v-3.3A0.293,0.293,0,0,0,292.5,16h-3.322A0.293,0.293,0,0,0,288.885,16.292Z" transform="translate(-260.531 -16)"/>
</svg>
